<?xml version="1.0" standalone="no"?>
<!DOCTYPE svg PUBLIC "-//W3C//DTD SVG 20010904//EN"
 "http://www.w3.org/TR/2001/REC-SVG-20010904/DTD/svg10.dtd">
<svg version="1.0" xmlns="http://www.w3.org/2000/svg"
 width="200.000000pt" height="200.000000pt" viewBox="0 0 200.000000 200.000000"
 preserveAspectRatio="xMidYMid meet">
<metadata>
Created by potrace 1.10, written by Peter Selinger 2001-2011
</metadata>
<g transform="translate(0.000000,200.000000) scale(0.100000,-0.100000)"
fill="#000000" stroke="none">
<path d="M150 1000 l0 -710 850 0 850 0 0 710 0 710 -850 0 -850 0 0 -710z
m1660 530 l0 -140 -810 0 -810 0 0 140 0 140 810 0 810 0 0 -140z m0 -690 l0
-510 -810 0 -810 0 0 510 0 510 810 0 810 0 0 -510z"/>
<path d="M329 1591 c-20 -20 -29 -39 -29 -61 0 -43 47 -90 90 -90 43 0 90 47
90 90 0 43 -47 90 -90 90 -22 0 -41 -9 -61 -29z m95 -27 c30 -29 9 -84 -31
-84 -21 0 -53 29 -53 48 0 22 30 52 51 52 10 0 25 -7 33 -16z"/>
<path d="M579 1591 c-20 -20 -29 -39 -29 -61 0 -43 47 -90 90 -90 43 0 90 47
90 90 0 43 -47 90 -90 90 -22 0 -41 -9 -61 -29z m93 -28 c22 -20 23 -41 1 -65
-20 -22 -46 -23 -67 -2 -30 29 -9 84 31 84 9 0 25 -7 35 -17z"/>
<path d="M845 1608 c-33 -17 -45 -40 -45 -80 0 -91 116 -120 163 -40 45 76
-40 163 -118 120z m81 -53 c15 -23 15 -27 0 -50 -27 -42 -86 -26 -86 23 0 55
56 72 86 27z"/>
<path d="M1056 1141 c-3 -5 -38 -154 -77 -331 -51 -232 -68 -325 -60 -333 7
-7 14 -7 20 -1 13 12 153 644 147 661 -6 15 -22 17 -30 4z"/>
<path d="M642 909 c-61 -50 -112 -94 -112 -99 0 -13 218 -190 235 -190 35 0 9
34 -80 107 -52 42 -95 80 -95 83 0 3 43 39 95 80 86 68 108 97 80 107 -6 2
-61 -38 -123 -88z"/>
<path d="M1224 985 c-4 -10 4 -24 21 -37 76 -60 160 -130 163 -137 1 -3 -41
-41 -93 -84 -89 -72 -115 -107 -81 -107 16 0 236 177 236 190 0 10 -220 190
-233 190 -4 0 -10 -7 -13 -15z"/>
</g>
</svg>
